<svg xmlns="http://www.w3.org/2000/svg" viewBox="0 0 512 512" role="img" aria-labelledby="title desc">
  <title id="title">Availability Group Name logo</title>
  <desc id="desc">A simple AG monogram for the Moodle Availability restriction by group name plugin.</desc>
  <rect width="512" height="512" rx="96" fill="#f98012"/>
  <circle cx="364" cy="148" r="52" fill="#ffffff" opacity="0.95"/>
  <circle cx="364" cy="256" r="52" fill="#ffffff" opacity="0.95"/>
  <circle cx="364" cy="364" r="52" fill="#ffffff" opacity="0.95"/>
  <path
    d="M104 344 190 128h52l86 216h-52l-16-44h-90l-16 44h-50Zm82-88h58l-29-78-29 78Z"
    fill="#ffffff"
  />
  <path
    d="M210 386c-30 0-55-9-73-27-18-18-27-43-27-74s9-56 28-74c19-18 45-27 78-27 19 0 37 3 53 10v44c-15-8-32-12-50-12-18 0-32 5-42 15-10 10-15 25-15 44 0 18 4 33 13 43 9 10 21 15 37 15 8 0 16-1 24-4v-34h-41v-40h88v108c-20 11-44 17-73 17Z"
    fill="#ffffff"
    opacity="0.92"
  />
</svg>
